Coordinates
version=1
nRows=17
nColumns=36
inDegrees=yes

Units are S.I. units (second, meters, Newtons, ...)
If the header above contains a line with 'inDegrees', this indicates whether rotational values are in degrees (yes) or radians (no).

endheader
time	pelvis_tilt	pelvis_list	pelvis_rotation	pelvis_tx	pelvis_ty	pelvis_tz	hip_flexion_r	hip_adduction_r	hip_rotation_r	knee_angle_r	knee_angle_r_beta	ankle_angle_r	subtalar_angle_r	mtp_angle_r	hip_flexion_l	hip_adduction_l	hip_rotation_l	knee_angle_l	knee_angle_l_beta	ankle_angle_l	subtalar_angle_l	mtp_angle_l	lumbar_extension	lumbar_bending	lumbar_rotation	arm_flex_r	arm_add_r	arm_rot_r	elbow_flex_r	pro_sup_r	arm_flex_l	arm_add_l	arm_rot_l	elbow_flex_l	pro_sup_l
      4.33333330	    -24.60602382	      2.22997049	     -3.70559672	      0.66552671	      0.86368891	      0.39185940	     48.68513360	     -9.07129702	    -11.81150820	     35.64684345	      0.62215479	     11.34535215	     -7.97834132	     -7.49999987	     46.53352803	    -13.75520766	    -13.87635242	     31.48455930	      0.54950922	      5.96709264	     -4.33147548	     -7.49999987	     -5.07043908	     -1.03444826	      2.22791605	     36.79780277	    -20.74202333	      9.37376196	    141.85418382	     99.24182763	     30.93415970	    -20.88627626	     -1.06655969	    140.78820406	     87.32772455
      4.35000000	    -22.94350601	      2.20528726	     -4.00768356	      0.67471311	      0.87805069	      0.39103478	     43.69112112	     -8.39894738	    -12.32997099	     30.46778156	      0.53176310	      9.71586270	     -7.12220873	     -7.49999987	     40.99116939	    -13.08406773	    -15.34966953	     25.64248266	      0.44754575	      3.89353310	     -2.93865616	     -7.49999987	     -4.64447474	     -0.98259786	      2.59772981	     34.00614067	    -20.76417303	      9.09456738	    141.20144594	     99.04704377	     27.10779153	    -19.91791547	     -0.70411085	    140.39359870	     88.06504422
      4.36666670	    -21.78286133	      2.17342808	     -4.33730017	      0.67725836	      0.88920286	      0.39213048	     40.02493029	     -7.76694667	    -12.50208146	     26.37126929	      0.46026548	      8.26906977	     -6.29383308	     -7.49999987	     36.61925997	    -12.56928300	    -16.54772238	     20.81523653	      0.36329441	      2.29550264	     -1.38707274	     -7.49999987	     -3.83982031	     -0.89171533	      2.75125373	     31.24469815	    -20.27720034	      9.01033244	    140.02530772	     98.79416155	     23.81948252	    -19.25033595	      0.23541310	    139.78948939	     88.76555413
      4.38333330	    -20.28187986	      1.89788621	     -4.63565083	      0.68606442	      0.89772049	      0.39114878	     35.80759298	     -6.92161713	    -12.79913064	     21.98510462	      0.38371246	      6.69140219	     -5.69664532	     -7.49999987	     32.15792790	    -12.13816182	    -17.32514890	     16.31594536	      0.28476697	      0.90699547	     -0.26119660	     -7.49999987	     -3.46925752	     -0.53919915	      2.66245417	     28.56808626	    -20.38405390	      8.88361877	    139.20187233	     97.99612149	     21.79864373	    -18.49943285	      1.00890207	    138.91348408	     89.71009169
      4.40000000	    -20.23283755	      1.79617110	     -4.75502163	      0.68759814	      0.90673295	      0.39062142	     33.64351092	     -6.29977060	    -12.90935580	     18.26696705	      0.31881872	      5.30533806	     -5.04474208	     -7.49999987	     30.06772929	    -11.69197281	    -17.67615896	     12.96586489	      0.22629703	     -0.09190029	      0.29156923	     -7.49999987	     -1.89009906	     -0.29246957	      2.45360922	     25.15081208	    -20.51403341	      9.51016348	    138.73329660	     97.94977826	     18.95859151	    -18.38771705	      1.63860867	    138.48299059	     89.93878290
      4.41666670	    -19.98085887	      1.67196093	     -4.72327533	      0.68691010	      0.90716392	      0.39056382	     31.79274950	     -5.89181735	    -13.07897658	     15.44666938	      0.26959524	      4.12456646	     -4.58333187	     -7.49999987	     28.28548034	    -11.30982269	    -17.66663923	     10.45201890	      0.18242214	     -0.46328013	      0.79703527	     -7.49999987	     -0.82488532	     -0.06157999	      2.15751028	     23.05778941	    -21.01059922	     10.11102319	    138.20524301	     97.85445127	     17.57642600	    -18.38635299	      2.27520505	    138.04589232	     90.15997383
      4.43333330	    -18.05223076	      1.21234071	     -4.57756437	      0.69310936	      0.91640686	      0.38656430	     27.87284349	     -5.35914904	    -13.48560943	     12.30981806	      0.21484686	      2.41277953	     -4.44350824	     -7.49999987	     24.69846443	    -11.01354908	    -17.80225182	      7.85632101	      0.13711867	     -0.71483322	      1.40599477	     -7.49999987	     -1.80139808	      0.42880531	      2.21397219	     21.34961852	    -21.81625678	     10.95909542	    137.67687556	     97.04114373	     16.25886471	    -17.49348536	      4.32932593	    136.66839151	     91.41616150
      4.45000000	    -17.53459022	      1.04746461	     -4.32902551	      0.69178607	      0.91745902	      0.38550954	     26.03285851	     -5.10293099	    -13.63757721	     10.12786000	      0.17676450	      1.30418027	     -4.08286266	     -7.49999987	     23.15698100	    -10.65283977	    -17.53366617	      6.10206546	      0.10650113	     -0.65623412	      1.71077422	     -7.49999987	     -1.34657239	      0.55590686	      2.81856998	     19.16965828	    -22.79469205	     10.79178005	    137.93276910	     93.38100699	     15.77511424	    -16.90811380	      7.13070968	    135.76761714	     96.68057122
      4.46666670	    -17.05769169	      0.87781065	     -4.08712962	      0.69849202	      0.91585806	      0.38737275	     24.34122180	     -4.83633331	    -13.67011379	      8.22242808	      0.14350844	      0.43553002	     -3.96215238	     -7.49999987	     21.62431922	    -10.30363497	    -17.25191716	      4.33138614	      0.07559695	     -0.67312771	      1.92506888	     -7.49999987	     -0.50192860	      0.74592199	      2.46305132	     17.38565963	    -22.80720688	     11.22468903	    137.48016366	     93.30818448	     13.54654062	    -16.48250775	      7.63023125	    135.23741203	     96.79571488
      4.48333330	    -15.94150264	      0.58530271	     -3.74810018	      0.70205639	      0.91980137	      0.38896150	     21.91518133	     -4.51458440	    -13.62727645	      6.33518715	      0.11056987	     -0.36853936	     -3.98832626	     -7.49999987	     19.44292639	    -10.06539431	    -16.71479109	      2.64263996	      0.04612277	     -0.77196930	      2.08821124	     -7.49999987	     -0.49449872	      1.06338998	      2.01681254	     16.03339749	    -22.78862018	     11.85171459	    136.50222984	     91.29216567	     12.34975517	    -16.03008711	      7.70144859	    134.44092766	     98.42788685
      4.50000000	    -15.46834284	      0.35839138	     -3.43645156	      0.70262913	      0.91812070	      0.38892734	     20.51577225	     -4.21875062	    -13.56781780	      5.03446199	      0.08786794	     -1.04582001	     -4.19350072	     -7.49999987	     18.34617065	     -9.95293590	    -16.07003330	      1.61446088	      0.02817766	     -0.50162693	      2.22299399	     -7.49999987	      0.08235822	      1.30723864	      1.53831171	     14.18974899	    -22.39321626	     11.87366713	    135.60990535	     90.31097061	     11.26558273	    -15.69530786	      7.78359038	    133.42684523	     97.68155183
      4.51666670	    -14.92282224	      0.12572151	     -3.07501542	      0.70658975	      0.91825162	      0.38990490	     19.19580328	     -3.96008115	    -13.43097631	      4.03699481	      0.07045885	     -1.41972143	     -4.62612182	     -7.49999987	     17.37953313	     -9.93144076	    -15.63740084	      0.98299479	      0.01715650	     -0.18099402	      2.40176152	     -7.49999987	      0.44384817	      1.48457153	      1.17058371	     12.30573210	    -22.22900273	     11.77170059	    134.93704138	     86.59823870	     10.27270627	    -15.60991586	      8.17916596	    132.74540384	     93.98457996
      4.53333330	    -14.55341617	     -0.10951217	     -2.60986038	      0.71166468	      0.91707757	      0.38650174	     18.11572367	     -3.77659194	    -13.43403853	      3.15317287	      0.05503325	     -1.47665665	     -4.98336258	     -7.49999987	     16.75784185	     -9.93485312	    -15.09384671	      0.66880687	      0.01167288	      0.31696409	      2.61379099	     -7.49999987	      0.97213953	      1.72386539	      0.89558201	     10.54373401	    -22.25834117	     11.70856846	    134.30885283	     86.86416928	      8.64792473	    -15.60483200	      8.88446316	    132.23284092	     94.61183466
      4.55000000	    -14.33477361	     -0.21387457	     -2.25238516	      0.71004859	      0.92153988	      0.38574948	     17.48004504	     -3.75110514	    -13.30839034	      2.72919983	      0.04763352	     -1.10359997	     -5.27647139	     -7.49999987	     16.44504367	     -9.88385417	    -14.71972424	      0.52892441	      0.00923147	      0.64047242	      2.72198941	     -7.49999987	      1.19936429	      1.85644278	      0.61934989	      9.44223201	    -22.23185908	     11.97262297	    133.91864813	     86.93255862	      7.52185889	    -15.55352090	      9.52600525	    131.83389863	     94.79235006
      4.56666670	    -13.84743081	     -0.52095985	     -1.61319505	      0.72054094	      0.92221995	      0.38494166	     16.11658738	     -3.51883030	    -13.41890325	      1.69099270	      0.02951339	     -1.45088698	     -5.94072792	     -7.49999987	     15.83062308	     -9.93813410	    -14.37220634	      0.42382701	      0.00739718	      1.05709964	      3.10884233	     -7.49999987	      1.73285709	      1.96693539	      1.26975592	      6.96340657	    -22.38556530	     10.72137707	    133.73753976	     88.23662242	      8.08364757	    -15.68374392	     12.49572083	    129.50568448	     99.70853614
      4.58333330	    -13.61487680	     -0.64039094	     -1.24888442	      0.71841603	      0.92259908	      0.38474716	     15.40088664	     -3.44831182	    -13.48011236	      1.17592602	      0.02052378	     -1.24566545	     -6.16103719	     -7.49999987	     15.50650754	     -9.90761429	    -14.12309622	      0.37347691	      0.00651840	      1.29164219	      3.20507009	     -7.49999987	      2.25892698	      2.01985610	      0.86777512	      5.70653588	    -22.20419855	     11.28341798	    133.53507516	     88.27047857	      7.27076660	    -15.71635118	     13.01134025	    129.34186772	     99.79321182
      4.60000000	    -13.33689502	     -0.81932932	     -0.86744295	      0.71915578	      0.92061591	      0.38423901	     14.72989378	     -3.32226208	    -13.75366729	      0.85258931	      0.01488049	     -1.27437675	     -6.56971385	     -7.49999987	     15.19195860	     -9.94650353	    -13.80628224	      0.35683057	      0.00622787	      1.65373313	      3.34902750	     -7.49999987	      2.77856630	      2.10737416	      0.59458771	      4.79004273	    -22.29694357	     12.27792280	    133.25151560	     86.04427486	      6.96446178	    -16.09889558	     14.34846317	    129.14010270	     97.03774353
